<?xml version="1.0" encoding="UTF-8" standalone="no"?>
<!-- Назив: Кућна библиотека | Верзија: 0.0.01.01. -->

<svg
   width="256"
   height="256"
   viewBox="0 0 256 256"
   fill="none"
   version="1.1"
   id="svg40"
   sodipodi:docname="ikona_biblioteka.svg"
   inkscape:version="1.4.1 (93de688d07, 2025-03-30)"
   xmlns:inkscape="http://www.inkscape.org/namespaces/inkscape"
   xmlns:sodipodi="http://sodipodi.sourceforge.net/DTD/sodipodi-0.dtd"
   xmlns="http://www.w3.org/2000/svg"
   xmlns:svg="http://www.w3.org/2000/svg">
  <defs
     id="defs40" />
  <sodipodi:namedview
     id="namedview40"
     pagecolor="#ffffff"
     bordercolor="#000000"
     borderopacity="0.25"
     inkscape:showpageshadow="2"
     inkscape:pageopacity="0.0"
     inkscape:pagecheckerboard="0"
     inkscape:deskcolor="#d1d1d1"
     inkscape:zoom="1.1200461"
     inkscape:cx="467.83789"
     inkscape:cy="242.40074"
     inkscape:window-width="1920"
     inkscape:window-height="1020"
     inkscape:window-x="0"
     inkscape:window-y="0"
     inkscape:window-maximized="1"
     inkscape:current-layer="svg40" />
  <!-- Позадина -->
  <rect
     x="0"
     y="0"
     width="256"
     height="256"
     rx="48"
     fill="#f5ecd7"
     id="rect1" />
  <!-- Прашњаве полице -->
  <rect
     x="16"
     y="32"
     width="224"
     height="28"
     rx="6"
     fill="#b7c7db"
     opacity="0.5"
     id="rect2" />
  <rect
     x="24"
     y="60"
     width="208"
     height="18"
     rx="4"
     fill="#b7c7db"
     opacity="0.3"
     id="rect3" />
  <!-- Књиге на полици -->
  <rect
     x="32"
     y="38"
     width="16"
     height="18"
     rx="2"
     fill="#d6bfa5"
     id="rect4" />
  <rect
     x="60"
     y="36"
     width="12"
     height="20"
     rx="2"
     fill="#bca68b"
     id="rect5" />
  <rect
     x="80"
     y="40"
     width="10"
     height="16"
     rx="2"
     fill="#a8b8c8"
     id="rect6" />
  <rect
     x="108"
     y="36"
     width="16"
     height="20"
     rx="2"
     fill="#e6d3b3"
     id="rect7" />
  <rect
     x="140"
     y="38"
     width="12"
     height="18"
     rx="2"
     fill="#c7b3a1"
     id="rect8" />
  <rect
     x="168"
     y="36"
     width="16"
     height="20"
     rx="2"
     fill="#c7d1e0"
     id="rect9" />
  <rect
     x="200"
     y="40"
     width="12"
     height="16"
     rx="2"
     fill="#bca68b"
     id="rect10" />
  <!-- Прашина -->
  <ellipse
     cx="45"
     cy="52"
     rx="3"
     ry="1.5"
     fill="#fff"
     opacity="0.5"
     id="ellipse10" />
  <ellipse
     cx="155"
     cy="44"
     rx="2.5"
     ry="1"
     fill="#fff"
     opacity="0.4"
     id="ellipse11" />
  <ellipse
     cx="210"
     cy="48"
     rx="2"
     ry="0.8"
     fill="#fff"
     opacity="0.3"
     id="ellipse12" />
  <!-- Сто -->
  <rect
     x="32"
     y="180"
     width="192"
     height="32"
     rx="10"
     fill="#d6bfa5"
     stroke="#9d8b71"
     stroke-width="2"
     id="rect12" />
  <!-- Мрље на столу -->
  <ellipse
     cx="60"
     cy="200"
     rx="8"
     ry="2.5"
     fill="#bca68b"
     opacity="0.4"
     id="ellipse13" />
  <ellipse
     cx="180"
     cy="210"
     rx="6"
     ry="1.5"
     fill="#bca68b"
     opacity="0.3"
     id="ellipse14" />
  <!-- Папири на столу -->
  <rect
     x="52"
     y="192"
     width="40"
     height="16"
     rx="3"
     fill="#fff9e2"
     stroke="#bca68b"
     stroke-width="1"
     id="rect14" />
  <rect
     x="100"
     y="196"
     width="28"
     height="10"
     rx="2"
     fill="#fff9e2"
     stroke="#bca68b"
     stroke-width="1"
     id="rect15" />
  <rect
     x="138"
     y="188"
     width="34"
     height="14"
     rx="2"
     fill="#fff9e2"
     stroke="#bca68b"
     stroke-width="1"
     id="rect16" />
  <rect
     x="180"
     y="194"
     width="28"
     height="12"
     rx="2"
     fill="#fff9e2"
     stroke="#bca68b"
     stroke-width="1"
     id="rect17" />
  <!-- Шврљарије и знакови питања -->
  <text
     x="62"
     y="204"
     font-size="10"
     fill="#bca68b"
     id="text17">???</text>
  <text
     x="110"
     y="204"
     font-size="8"
     fill="#bca68b"
     id="text18">#?!</text>
  <!-- Књиге на столу -->
  <rect
     x="72"
     y="182"
     width="18"
     height="16"
     rx="2"
     fill="#b7c7db"
     stroke="#9d8b71"
     stroke-width="1"
     id="rect18" />
  <rect
     x="190"
     y="186"
     width="16"
     height="20"
     rx="2"
     fill="#e6d3b3"
     stroke="#9d8b71"
     stroke-width="1"
     id="rect19" />
  <rect
     x="160"
     y="196"
     width="14"
     height="10"
     rx="2"
     fill="#bca68b"
     stroke="#9d8b71"
     stroke-width="1"
     id="rect20" />
  <!-- Отворена књига -->
  <rect
     x="128"
     y="202"
     width="18"
     height="8"
     rx="2"
     fill="#fff"
     stroke="#bca68b"
     stroke-width="1"
     id="rect21" />
  <line
     x1="137"
     y1="202"
     x2="137"
     y2="210"
     stroke="#bca68b"
     stroke-width="1"
     id="line21" />
  <!-- Мастионица и мрља мастила -->
  <ellipse
     cx="110"
     cy="215"
     rx="7"
     ry="5"
     fill="#3d4e6b"
     id="ellipse21" />
  <ellipse
     cx="110"
     cy="222"
     rx="5"
     ry="2"
     fill="#3d4e6b"
     opacity="0.5"
     id="ellipse22" />
  <!-- Перо у мастионици -->
  <rect
     x="107"
     y="205"
     width="2"
     height="12"
     rx="1"
     fill="#d6bfa5"
     id="rect22" />
  <polygon
     points="108,205 110,205 109,200"
     fill="#b7c7db"
     id="polygon22" />
  <!-- Централни лик: чувар знања -->
  <!-- Тело -->
  <ellipse
     cx="129.02588"
     cy="134.76942"
     rx="50.547478"
     ry="55.230579"
     fill="#b7c7db"
     id="ellipse23"
     style="stroke-width:1.35525" />
  <!-- Џемпер -->
  <ellipse
     cx="128"
     cy="170"
     rx="32"
     ry="18"
     fill="#7d90b0"
     id="ellipse24" />
  <!-- Врат -->
  <rect
     x="118"
     y="140"
     width="20"
     height="18"
     rx="6"
     fill="#f3e6c6"
     id="rect24" />
  <!-- Глава -->
  <ellipse
     cx="128"
     cy="120"
     rx="28"
     ry="26"
     fill="#f3e6c6"
     stroke="#bca68b"
     stroke-width="1.5"
     id="ellipse25" />
  <!-- Проређена коса -->
  <ellipse
     cx="120"
     cy="110"
     rx="8"
     ry="4"
     fill="#d6bfa5"
     opacity="0.7"
     id="ellipse26" />
  <ellipse
     cx="138"
     cy="108"
     rx="6"
     ry="3"
     fill="#d6bfa5"
     opacity="0.5"
     id="ellipse27" />
  <!-- Наочаре -->
  <ellipse
     cx="118"
     cy="125"
     rx="8"
     ry="6"
     fill="#fff"
     stroke="#3d4e6b"
     stroke-width="2"
     id="ellipse28" />
  <ellipse
     cx="138"
     cy="125"
     rx="8"
     ry="6"
     fill="#fff"
     stroke="#3d4e6b"
     stroke-width="2"
     id="ellipse29" />
  <ellipse
     cx="116"
     cy="127"
     rx="2"
     ry="2"
     fill="#3d4e6b"
     id="ellipse30" />
  <ellipse
     cx="140"
     cy="127"
     rx="2"
     ry="2"
     fill="#3d4e6b"
     id="ellipse31" />
  <rect
     x="126"
     y="126"
     width="4"
     height="2"
     rx="1"
     fill="#3d4e6b"
     id="rect31"
     style="fill:#0a0d11;fill-opacity:1" />
  <!-- Наочаре клизе низ нос -->
  <rect
     x="116"
     y="133"
     width="16"
     height="2"
     rx="1"
     fill="#3d4e6b"
     opacity="0.5"
     id="rect32" />
  <!-- Перо иза ува -->
  <rect
     x="148"
     y="115"
     width="2"
     height="10"
     rx="1"
     fill="#b7c7db"
     id="rect33" />
  <polygon
     points="149,115 151,115 150,110"
     fill="#7d90b0"
     id="polygon33" />
  <!-- Израз лица: збуњеност -->
  <ellipse
     cx="128"
     cy="135"
     rx="7"
     ry="3"
     fill="#fff"
     id="ellipse33" />
  <ellipse
     cx="128"
     cy="138"
     rx="4"
     ry="1.5"
     fill="#bca68b"
     opacity="0.5"
     id="ellipse34" />
  <ellipse
     cx="120"
     cy="120"
     rx="2.5"
     ry="1.5"
     fill="#3d4e6b"
     id="ellipse35" />
  <ellipse
     cx="136"
     cy="120"
     rx="2.5"
     ry="1.5"
     fill="#3d4e6b"
     id="ellipse36" />
  <ellipse
     cx="124"
     cy="130"
     rx="1.5"
     ry="0.7"
     fill="#3d4e6b"
     id="ellipse37" />
  <ellipse
     cx="132"
     cy="130"
     rx="1.5"
     ry="0.7"
     fill="#3d4e6b"
     id="ellipse38" />
  <!-- Подигнуте обрве -->
  <rect
     x="115"
     y="113"
     width="7"
     height="2"
     rx="1"
     fill="#3d4e6b"
     id="rect38" />
  <rect
     x="136"
     y="112"
     width="7"
     height="2"
     rx="1"
     fill="#3d4e6b"
     id="rect39" />
  <!-- Благо отворена уста -->
  <ellipse
     cx="128"
     cy="143"
     rx="4"
     ry="2"
     fill="#fff"
     stroke="#bca68b"
     stroke-width="1"
     id="ellipse39" />
  <ellipse
     cx="128"
     cy="144"
     rx="2"
     ry="0.7"
     fill="#bca68b"
     id="ellipse40" />
  <path
     style="fill:#000000"
     d="m 36.300863,45.454994 c 9.154131,0 9.154131,0 9.154131,0 z"
     id="path40" />
  <path
     style="fill:#000000"
     d="m 37.498457,43.301789 c 0.595213,-0.148803 1.934444,0.148804 1.785641,-0.44641 -0.148804,-0.595213 -2.399173,0.44641 -1.785641,0.44641 3.500009,0 3.945437,-0.89282 6.696153,-0.89282 0.156572,0 2.061267,-0.170784 2.232051,0 0.148803,0.148803 -0.235971,0.44641 -0.44641,0.44641"
     id="path41" />
  <circle
     id="path42"
     style="fill:#000000;stroke:none"
     cx="36.605637"
     cy="45.980251"
     r="1.5" />
  <path
     style="fill:#000000"
     d="m 36.828841,45.08743 c 0.372009,-0.148803 1.264829,-0.0744 1.116026,-0.44641 -0.148803,-0.372009 -1.516691,0.44641 -1.116026,0.44641 0.613533,0 1.186719,-0.313316 1.785641,-0.44641 0.14526,-0.03228 0.341191,0.10522 0.44641,0 0.11764,-0.117639 0.06538,-0.3938 0.223206,-0.44641 0.157829,-0.05261 0.28858,0.170595 0.44641,0.223205 0.126239,0.04208 0.579967,-0.08965 0.669615,0 0.111603,0.111602 -0.111602,0.558013 0,0.669615 0.05261,0.05261 0.148803,0 0.223205,0 0.148804,0.223205 0.256723,0.479928 0.44641,0.669615 0.198111,0.198111 0.88253,0.290747 1.116026,0.446411 0.341331,0.227554 0.570893,0.635278 0.89282,0.89282 0.953295,0.762636 1.963026,1.304865 2.901667,2.008846 0.634577,0.475933 0.295435,0.01806 1.116025,0.223205 0.202484,0.05062 0.477446,0.350325 0.669615,0.44641 0.2347,0.11735 0.847927,0 1.116026,0 0.148803,0 0.44641,0.148804 0.44641,0 0,-0.166367 -0.328771,0.105566 -0.44641,0.223205 -0.304745,0.304746 -1.122357,0.446411 -1.562436,0.446411"
     id="path43" />
  <path
     style="fill:#000000"
     d="m 63.836659,45.53384 c 3.282457,-1.114442 -3.824235,1.423549 1.78564,-0.44641 0.414289,-0.138096 0.05664,-0.474731 0.446411,-0.669615 0.210439,-0.10522 0.473851,-0.0927 0.669615,-0.223205 0.195764,-0.130509 -0.297607,-0.44641 -0.223205,-0.669616 0.08483,-0.254492 0.549646,-0.206471 0.669615,-0.44641 0.128239,-0.256478 0.06412,-0.574649 0.223205,-0.89282 0.0744,-0.148804 0.170595,-0.28858 0.223205,-0.44641 0.104509,-0.313526 -0.223205,-0.56725 -0.223205,-0.892821 0,-1.016093 -0.10522,-0.01277 0.223205,-0.669615 0.06151,-0.123029 0,-1.265724 0,-0.669615"
     id="path44" />
  <path
     style="fill:#000000"
     d="m 65.399094,48.212302 c 0.0744,0.297606 -0.0744,0.967222 0.223205,0.89282 0.297607,-0.0744 -0.297606,-1.190427 -0.223205,-0.89282 0.20175,0.806999 0.70946,1.666106 0.44641,2.455256 -0.05261,0.15783 -0.223205,0.280043 -0.223205,0.44641 0,0.166367 0.182855,0.28501 0.223205,0.44641 0.05414,0.216541 -0.157829,0.511786 0,0.669615 0.11764,0.11764 0.328771,0.105566 0.446411,0.223205 0.194384,0.194385 8.26e-4,0.669616 -0.223205,0.669616 l 2.232051,-7.588974"
     id="path45" />
  <path
     style="fill:#000000"
     d="m 81.469861,43.524994 h 6.026538"
     id="path46" />
  <path
     style="fill:#000000"
     d="m 81.916272,48.212302 4.910512,-6.472948 -3.571282,3.794486 c 0.595214,0.372009 1.231591,0.685098 1.785641,1.116026 0.131322,0.10214 0.105566,0.328771 0.223205,0.44641 0.11764,0.117639 0.318603,0.116699 0.44641,0.223205 0.323329,0.269441 0.550337,0.648189 0.892821,0.892821 0.462131,0.330093 1.343102,0.315584 1.785641,0.669615 0.209475,0.16758 0.256722,0.479927 0.44641,0.669615 0.343596,0.343597 0.995634,0.549224 1.33923,0.892821 1.237437,1.237436 0.0509,0.274102 0.669616,0.89282 0.08662,0.08662 1.116025,0.696523 1.116025,0.89282 0,0.148804 -0.297607,0 -0.44641,0 -0.506647,-0.444514 -2.98845,-1.630646 -4.017692,-1.116025 -0.09411,0.04706 -0.123385,0.189932 -0.223205,0.223205 -0.502668,0.167556 -0.805567,-0.490037 -1.339231,-0.223205 -0.239938,0.119969 -0.429677,0.326441 -0.669615,0.44641 -0.27438,0.13719 -0.592011,-0.163043 -0.89282,-0.223205 -0.165025,-0.03301 -1.562482,0.223205 -2.008846,0.223205 -0.200236,0 -1.022201,-0.31703 -1.116026,-0.223205 -0.297606,0.297607 0.372009,0.223205 -0.223205,0.223205"
     id="path47" />
  <path
     style="fill:#000000"
     d="M 83.032297,56.247685 112.49537,42.632174"
     id="path48" />
  <path
     style="fill:#000000"
     d="m 116.51306,41.069738 -5.58013,-1.116025 c 0.29761,0.595214 0.62255,1.177527 0.89283,1.785641 0.11952,0.26894 -0.22321,0.383252 -0.22321,0.669615 0,1.103275 -0.22321,2.02253 -0.22321,3.124871 0,0.09191 0.0591,0.610532 0,0.669616 -0.0526,0.05261 -0.17059,-0.05261 -0.2232,0 -0.11137,0.111374 0,0.941254 0,1.116025"
     id="path49" />
  <path
     style="fill:#000000"
     d="m 113.16499,49.105122 4.6873,-2.455256 c -0.2232,0.595214 -0.43352,1.195419 -0.66961,1.785641 -0.41839,1.045976 0.17175,2.111742 0,2.455256 -0.18225,0.364491 -0.30243,0.684079 -0.44641,1.116025 -0.23662,0.709851 0.58719,0.570041 -0.22321,1.785641 -0.33582,0.503739 -0.49912,1.116026 0.22321,1.116026"
     id="path50" />
  <path
     style="fill:#000000"
     d="m 141.06562,39.953713 c -0.0967,0 -0.44641,0.275285 -0.44641,0.223205 0,-0.0744 0.14881,0 0.22321,0 0.93104,0 1.57495,0.458922 2.23205,1.116025 0.77171,0.771711 2.59638,0.282243 3.12487,1.339231 0.0666,0.133094 -0.0323,0.30115 0,0.44641 0.13309,0.598922 0.29761,1.190427 0.44641,1.785641 l -6.02654,5.356922 c 1.97699,0.555203 4.08308,0.409314 6.02654,1.116026 0.46905,0.170565 0.85772,0.538293 1.33923,0.669615 0.3589,0.09788 0.74629,-0.04108 1.11603,0 0.30489,0.03388 0.59201,0.163044 0.89282,0.223205 0.6889,0.137781 1.38449,-0.01509 2.00884,-0.223205 0.0665,-0.02217 0.89282,0.01699 0.89282,0 0,-0.221899 -0.43591,0.456904 -0.66961,0.223205 -0.1116,-0.111602 -0.1116,-0.334807 -0.22321,-0.44641 -0.10522,-0.10522 -0.31331,0.06655 -0.44641,0 -0.18822,-0.09411 -0.25818,-0.352298 -0.44641,-0.44641 -0.19512,-0.09756 -0.70434,0.04712 -0.89282,0 -0.25971,-0.06493 -1.75894,-0.419715 -1.78564,-0.44641 -0.0526,-0.05261 0.0526,-0.170595 0,-0.223205 -0.16631,-0.16631 -0.21664,0.223205 -0.44641,0.223205"
     id="path51" />
  <path
     style="fill:#000000"
     d="m 169.85908,37.944867 c 0,0.383777 0.0714,1.557997 0.22321,1.785641 0.11673,0.175096 0.32968,0.271313 0.44641,0.44641 0.13735,0.206035 -0.13736,0.686785 0,0.89282 0.70121,1.051776 0.28102,-0.244041 0.66961,1.116026 0.27458,0.961014 0.20879,1.951194 0.44641,2.901666 0.1884,0.753584 0.44641,1.488034 0.66962,2.232051 l -0.66962,-10.044229 c 2.18245,-1.576212 1.45599,0.951198 2.23205,1.33923 0.29827,0.149133 0.6609,-0.176825 0.89282,-0.223205 0.60015,-0.120029 5.38288,0.197255 5.58013,0 0.0526,-0.05261 -0.0526,-0.170595 0,-0.223205 0.10522,-0.10522 0.34119,0.10522 0.44641,0 0.0744,-0.0744 0.14881,-0.297605 0.22321,-0.223205 0.0684,0.06837 -0.32291,0.546109 -0.44641,0.669615 -0.59521,0.595214 -1.19043,1.190427 -1.78564,1.785641 -0.0619,0.204462 0.12381,0.483898 0,0.669615 -0.18457,0.276852 -0.65755,0.211132 -0.89283,0.446411 -0.30676,0.306766 -0.36284,0.809259 -0.66961,1.116025 -0.0526,0.05261 -0.1706,-0.05261 -0.22321,0 -0.15783,0.15783 0.0706,0.457864 0,0.669615 -0.0848,0.254493 -0.25672,0.479928 -0.44641,0.669616 -0.0744,0.0744 -0.59521,0.148803 -0.66961,0.223205 -0.22321,0.223205 0.2232,1.116025 0,1.33923 -0.1116,0.111603 -0.33481,0.111603 -0.44641,0.223205 -0.10318,0.10318 0.0674,0.53485 0,0.669616 -0.0941,0.188223 -0.3523,0.258187 -0.44641,0.44641 -0.15143,0.302859 0.45866,0.198696 0.2232,0.669615 -0.0471,0.09411 -0.17615,0.129094 -0.2232,0.223205 -0.11709,0.234174 0.17815,0.937872 0,1.116026 -0.26006,0.260062 -0.18635,-0.260062 -0.44641,0 -0.19314,0.19314 0.12069,1.097848 0,1.33923 -0.0333,0.06655 -0.1706,-0.05261 -0.22321,0 -0.35788,0.357879 0.56683,1.837035 -0.66961,2.455257 -0.0941,0.04706 -0.11799,0.223205 -0.22321,0.223205 -0.2232,0 0,-0.446411 0,-0.669616 0,-0.328197 -0.2232,-0.564622 -0.2232,-0.89282 0,-0.790432 1.11043,-1.322457 1.33923,-2.008846 0.20254,-0.607618 -0.2024,-0.994962 0.2232,-1.562436 0.1894,-0.252527 0.66962,-0.353955 0.66962,-0.669615 0,-0.763654 -0.48237,-0.115334 -0.22321,-0.89282 0.20644,-0.619316 1.1328,0.172905 1.33923,-0.446411 0.093,-0.279112 0.12522,-2.803679 0.22321,-2.901666 0.46182,-0.461819 -0.018,0.705721 0.44641,-0.223205 0.11696,-0.233927 0,-0.857731 0,-1.116025 0,-0.148804 0.1488,-0.446411 0,-0.446411 -0.19506,0 0.2232,2.875349 0.2232,2.901667 0,0.305008 0.17556,2.630807 0.22321,2.678461 0.11764,0.117639 0.35413,0.08478 0.44641,0.223205 0.31431,0.471462 0.26895,1.16177 0.66962,1.562436 0.0526,0.05261 0.17059,-0.05261 0.2232,0 0.0526,0.05261 -0.0526,0.170595 0,0.223205 0.43069,0.430691 0.66775,0.217616 0.89282,0.89282 0.0657,0.19703 0,0.72059 0,0.892821 0,0.22977 0.38952,0.2801 0.22321,0.44641 -0.14881,0.148803 -0.37201,-0.223205 -0.22321,0.223205 0.0526,0.15783 0.26356,0.28501 0.22321,0.44641 -0.1929,0.771593 -0.67227,0.268906 -1.11603,0.44641 -0.19539,0.07816 -0.27806,0.320147 -0.44641,0.44641 -0.13309,0.09982 -0.35413,0.08478 -0.44641,0.223206 -0.3194,0.479097 0.33107,0.392478 -0.22321,0.669615 -0.43915,0.219575 -0.59933,-0.299666 -0.89282,-0.44641 -0.16105,-0.08053 -1.5056,-0.166376 -1.56243,-0.223205 -0.14815,-0.148149 0.14815,-0.298262 0,-0.446411 -0.46182,-0.461819 0.018,0.705721 -0.44641,-0.223205 -0.0333,-0.06655 0.0526,-0.170595 0,-0.223205 -0.14801,-0.148006 -1.10467,0 -1.33923,0 -0.37703,0 -0.77542,-0.393511 -1.11603,-0.223205 -0.18822,0.09411 -0.25818,0.352299 -0.44641,0.44641 -0.13476,0.06738 -0.56643,-0.103179 -0.66961,0 -0.0744,0.0744 0.11798,0.223205 0.2232,0.223205"
     id="path52" />
  <path
     style="fill:#000000"
     d="m 204.67908,42.855379 -0.66962,6.919358"
     id="path53" />
  <path
     style="fill:#000000"
     d="m 206.46472,43.971405 c 0,0.297606 -0.29761,0.89282 0,0.89282 0.2976,0 0,-1.190427 0,-0.89282 0,0.744017 0.33273,1.566582 0,2.232051 -0.0471,0.09411 -0.18993,0.123384 -0.22321,0.223205 -0.15666,0.469974 0.12065,1.079836 0,1.562435 -0.0404,0.1614 -0.2232,0.280043 -0.2232,0.446411 0,0.641297 0.62119,1.834065 0,2.455256 -0.16637,0.166367 -0.46787,0.102155 -0.66962,0.223205 -0.83186,0.499115 -1.42407,1.470195 -2.23205,2.008846 -0.39153,0.261018 -0.91835,0.23597 -1.33923,0.44641 -1.12436,0.562182 0.41234,0.392371 -1.33923,0.89282 -0.1028,0.02937 -1.53465,0.20931 -1.56244,0.223205 -0.1563,0.07816 -0.24502,0.647797 -0.44641,0.446411 -0.0526,-0.05261 0,-0.148804 0,-0.223205 0,-0.587561 0.62526,0.04436 0.89282,-0.223206 0.0526,-0.05261 -0.0526,-0.170595 0,-0.223205 0.21583,-0.215828 0.66962,-0.04858 0.66962,-0.44641 0,-0.148803 -0.0666,-0.313316 0,-0.44641 0.0666,-0.133094 0.34119,0.10522 0.44641,0 0.0967,-0.09667 0.35037,-0.748764 0.44641,-0.89282 0.34186,-0.512784 0.12749,0.09571 0.66962,-0.446411 0.0526,-0.05261 0,-0.148803 0,-0.223205 0.0744,-0.223205 0.0568,-0.503248 0.2232,-0.669615 0.10522,-0.10522 0.3226,0.08254 0.44641,0 0.13843,-0.09228 0.10557,-0.328771 0.22321,-0.44641 0.0526,-0.05261 0.1488,0 0.2232,0 0.1488,-0.148804 0.32968,-0.271314 0.44641,-0.44641 0.0825,-0.123812 -0.047,-0.305243 0,-0.446411 0.0848,-0.254493 0.44641,-0.401356 0.44641,-0.669615 0,-0.359656 -0.37004,-0.67551 -0.2232,-1.116025 0.11803,-0.354095 0.89282,-0.861081 0.89282,-1.116026 0,-0.379376 -0.34318,-0.756118 -0.22321,-1.116025 0.17646,-0.529372 0.4203,-1.417564 0.22321,-2.008846 -0.17427,-0.522804 -0.66962,-0.690494 -0.66962,0"
     id="path54" />
  <path
     style="fill:#000000"
     d="m 72.541657,184.81382 c 0.223206,0.29761 0.372009,1.11603 0.669616,0.89282 0.297607,-0.2232 -0.932665,-1.15587 -0.669616,-0.89282 0.559252,0.55925 1.003185,1.22639 1.562436,1.78564 0.111603,0.11161 0.334808,0.11161 0.44641,0.22321 0.05261,0.0526 -0.05261,0.17059 0,0.2232 0.07747,0.0775 1.811853,-0.2232 2.008846,-0.2232 0.492306,0 0.639099,-0.10397 1.116026,-0.22321 0.375505,-0.0939 3.359324,-0.10598 3.571281,0 0.09411,0.0471 0.123385,0.18994 0.223205,0.22321 0.214354,0.0714 0.678598,-0.10711 0.892821,0 0.267846,0.13392 0.401769,0.53569 0.669615,0.66961 0.155292,0.0777 1.994149,-0.2085 2.008846,-0.2232 0.297607,-0.29761 -0.372008,-0.22321 0.223205,-0.22321 0.484205,0 0.731782,-0.0311 1.116026,-0.2232 0.204274,-0.10214 0.741375,0.15144 0.89282,0 0.05261,-0.0526 0,-0.1488 0,-0.22321"
     id="path55" />
  <path
     style="fill:#000000"
     d="m 75.666529,191.73318 c 0.223205,-0.29761 0.967222,-0.66961 0.669615,-0.89282 -0.297607,-0.2232 -1.041624,0.89282 -0.669615,0.89282 0.595213,-0.29761 1.190427,-0.59521 1.785641,-0.89282 0,-0.0744 -0.05261,-0.17059 0,-0.2232 0.186921,-0.18693 3.227495,0.10262 3.348076,0.2232 0.148804,0.1488 -0.148803,0.74402 0,0.89282 0.461819,0.46182 -0.01805,-0.70572 0.44641,0.22321 0.157665,0.31532 0.0072,0.45361 0.223205,0.66961 0.10522,0.10522 0.341191,-0.10522 0.446411,0 0.05261,0.0526 -0.05261,0.1706 0,0.22321 0.05261,0.0526 0.148803,0 0.223205,0 0.0744,0.1488 0.105565,0.32877 0.223205,0.44641 0.06464,0.0646 1.4978,0.0646 1.562436,0 0.595213,-0.59522 -0.669616,0.0744 0.223205,-0.22321 0.442892,-0.14763 0.657598,-0.57793 1.116025,-0.66961 0.218871,-0.0438 0.457865,0.0706 0.669615,0 0.09585,-0.032 -0.176529,-0.22321 0.669616,-0.22321 0.227159,0 2.194729,0.18588 1.562435,-0.44641 -0.05261,-0.0526 -0.161299,0.0413 -0.223205,0 -0.120023,-0.08 -0.791169,-0.68952 -0.89282,-0.89282 -0.03327,-0.0666 0.05261,-0.17059 0,-0.2232 -0.06976,-0.0698 -1.648697,-0.0863 -1.785641,-0.22321 -0.05261,-0.0526 0.05261,-0.17059 0,-0.2232 -0.251511,-0.25152 -0.669615,0.34248 -0.669615,-0.22321"
     id="path56" />
  <path
     style="fill:#000000"
     d="m 70.309606,200.88459 c 0.41043,0 0.240281,0.34335 0,0.22321 -0.257061,-0.12854 -0.962589,-0.77775 -1.116025,-0.89283 -2.165252,-1.62393 -2.946668,-0.96945 -5.803333,-1.78564 -0.357695,-0.10219 1.116026,-0.372 1.116026,0 0,0.37201 -0.744017,0 -1.116026,0 -2.871561,4.45143 -1.129005,0.78771 -2.678461,1.56244 -0.148803,0.0744 -0.328771,0.10557 -0.44641,0.2232 -0.10522,0.10522 0.148803,0.44641 0,0.44641 -0.306766,0 -0.589138,-0.17982 -0.89282,-0.2232 -0.690096,-0.0986 -1.103848,0.0868 -1.785641,0.2232 -0.164521,0.0329 -0.782399,-0.11042 -0.892821,0 -0.05261,0.0526 0.05261,0.1706 0,0.22321 -0.297606,0.29761 -0.223205,-0.37201 -0.223205,0.22321"
     id="path57" />
  <path
     style="fill:#000000"
     d="m 76.782554,204.90228 c 0.900073,0 1.026491,-0.80328 1.562436,-1.33923 0.15783,-0.15783 0.469975,0.0998 0.669615,0 0.04352,-0.0218 0.174775,-0.39801 0.223205,-0.44641 0.05261,-0.0526 0.156656,0.0333 0.223206,0 0.928926,-0.46451 -0.238615,0.0154 0.223205,-0.44641 0.05261,-0.0526 0.189935,0.0666 0.223205,0 0.06655,-0.13309 -0.06655,-0.31332 0,-0.44641 0.08256,-0.1651 0.80743,-0.1378 0.89282,-0.2232 0.08965,-0.0897 -0.04208,-0.54338 0,-0.66962 0.236807,-0.71042 0.669615,-1.22229 0.669615,-2.00885 0,-0.17477 0.111375,-1.00465 0,-1.11602 -0.05261,-0.0526 -0.156655,0.0333 -0.223205,0 -0.188223,-0.0941 -0.258187,-0.35231 -0.44641,-0.44641 -0.214223,-0.10711 -0.678467,0.0714 -0.89282,0 -0.09982,-0.0333 -0.121127,-0.19771 -0.223205,-0.22321 -1.386944,-0.34673 -3.069827,0.22321 -4.464102,0.22321 -1.866512,0 -3.530795,0.0813 -5.133718,1.11602 0,-0.2976 0.297607,-0.89282 0,-0.89282 -0.297606,0 0.133094,1.15901 0,0.89282 -0.347385,-0.69477 -0.381127,-1.51083 -0.669615,-2.23205 -0.02763,-0.0691 -0.156655,0.0333 -0.223205,0 -0.188223,-0.0941 -0.3523,-0.25818 -0.44641,-0.44641 -0.170365,-0.34073 0.111032,-0.55858 -0.223205,-0.89282 -0.148804,-0.1488 -0.297607,-0.2976 -0.446411,-0.44641 -0.372008,-0.2976 -0.779157,-0.55595 -1.116025,-0.89282 -0.461819,-0.46181 0.705721,0.0181 -0.223205,-0.44641 -0.16892,-0.0845 -1.20304,-0.53342 -0.669615,0 -1.065932,0.98283 -2.410539,0.21426 -3.571282,0.44641 -0.26305,0.0526 -0.406566,0.3938 -0.669615,0.44641 -0.291828,0.0584 -0.610486,-0.0941 -0.892821,0 -0.19964,0.0666 -0.242253,0.39537 -0.44641,0.44641 -0.1614,0.0404 -0.280043,-0.2232 -0.44641,-0.2232 -0.596474,0 -1.112532,0.66787 -1.562436,0.89282 -0.526763,0.26338 -1.035673,0.18303 -1.562436,0.44641 -0.341855,0.17093 -0.17455,0.39775 -0.44641,0.66961 -0.04113,0.0411 -0.628487,0.18208 -0.669615,0.22321 -0.461819,0.46182 0.705721,-0.018 -0.223205,0.44641 -0.06655,0.0333 -0.223205,-0.0744 -0.223205,0 0,0.16637 0.170595,0.28858 0.223205,0.44641 0.0843,0.25291 -0.118262,0.6563 0,0.89282 0.322623,0.64524 1.238043,0.12202 1.562436,0.44641 0.05261,0.0526 -0.05261,0.17059 0,0.2232 0.157829,0.15783 0.483897,-0.12381 0.669615,0 0.138426,0.0923 0.105566,0.32878 0.223205,0.44641 0.02232,0.0223 0.647295,0.0223 0.669615,0 0.05261,-0.0526 -0.05261,-0.17059 0,-0.2232 0.317918,-0.31792 0.752518,0.29336 0.892821,0.2232 0.182735,-0.0914 1.010202,-1.46817 1.116025,-1.78564 0.04706,-0.14116 -0.04706,-0.30524 0,-0.44641 0.140935,-0.4228 0.691616,-0.2672 0.892821,-0.66961 0.113551,-0.22711 -0.176957,-0.93907 0,-1.11603 0.05261,-0.0526 0.170595,0.0526 0.223205,0 0.0121,-0.0121 0.434315,-0.65752 0.44641,-0.66961 0.05261,-0.0526 0.170595,0.0526 0.223205,0 0.111603,-0.11161 -0.111603,-0.55802 0,-0.66962 0.111603,-0.1116 0.558013,0.1116 0.669615,0 0.300459,-0.30046 0.299919,-0.66961 0.669616,-0.66961"
     id="path58" />
  <path
     style="fill:#000000"
     d="m 109.3705,201.55421 c -0.29761,0.1488 -1.04162,0.1488 -0.89282,0.44641 0.1488,0.2976 1.15901,-0.64606 0.89282,-0.44641 -0.56152,0.42114 -1.25741,0.65381 -1.78564,1.11602 -0.0826,0.0723 -0.2534,1.30904 -0.22321,1.33923 0.10522,0.10522 0.31332,-0.0665 0.44641,0 0.23994,0.11997 0.42968,0.32644 0.66962,0.44641 0.25402,0.12701 0.3938,-0.2232 0.66961,-0.2232 0.2681,0 0.88133,0.11735 1.11603,0 0.1488,-0.0744 0.32877,-0.10557 0.44641,-0.22321 0.0526,-0.0526 -0.0665,-0.18993 0,-0.2232 0.44641,-0.22321 0.33481,0.1116 0.66961,0 0.15783,-0.0526 0.28859,-0.1706 0.44642,-0.22321 0.53569,-0.17856 1.24994,0.17857 1.78564,0 0.0998,-0.0333 0.12338,-0.18993 0.2232,-0.2232 0.33481,-0.11161 0.78122,0.1116 1.11603,0 0.4064,-0.13547 0.70962,-0.31095 1.11602,-0.44641 0.38287,-0.12763 0.98195,0.17864 1.33923,0 0.17553,-0.0878 0.7902,-0.3438 0.89282,-0.44641 0.10522,-0.10522 -0.10522,-0.34119 0,-0.44641 0.0526,-0.0526 0.1706,0.0526 0.22321,0 0.0612,-0.0612 0.19591,-0.44641 0.44641,-0.44641 0.10522,0 0.12338,0.18993 0.2232,0.2232 0.21236,0.0708 0.8538,-0.26223 0.66962,-0.44641 -0.10522,-0.10522 -0.31332,0.0666 -0.44641,0 -0.32553,-0.16276 -0.35707,-0.35707 -0.44641,-0.44641 -0.10522,-0.10522 -0.31332,0.0666 -0.44641,0 -0.18823,-0.0941 -0.25819,-0.3523 -0.44641,-0.44641 -0.30809,-0.15404 -0.81023,-0.0703 -1.11603,-0.22321 -0.0665,-0.0333 0.0526,-0.17059 0,-0.2232 -0.19913,-0.19913 -0.44641,0.0328 -0.44641,0.2232"
     id="path59" />
  <path
     style="fill:#000000"
     d="m 145.97614,194.63485 c 0.2976,-0.0744 0.96722,0.0744 0.89282,-0.22321 -0.0744,-0.2976 -1.19043,0.14881 -0.89282,0.22321 1.14058,0.28514 1.93549,0.0183 2.90166,-0.22321 0.45491,-0.11373 0.66382,0.13276 1.11603,0.22321 0.35097,0.0702 1.2217,0.11357 1.56243,0 0.15783,-0.0526 0.29761,-0.29761 0.44641,-0.22321 0.23994,0.11997 0.23181,0.50866 0.44641,0.66962 0.34729,0.26046 1.20943,-0.51132 2.23205,0 0.57797,0.28898 0.30091,-0.30091 0.44641,-0.44641 0.0215,-0.0215 0.6686,-0.003 0.66962,0 0.0706,0.21175 -0.0706,0.45786 0,0.66961 0.008,0.0247 1.20834,-0.76192 1.33923,-0.89282 0.0526,-0.0526 -0.0526,-0.17059 0,-0.2232 0.0526,-0.0526 0.15666,0.0333 0.22321,0 0.49351,-0.24676 0.0693,-0.13853 0.2232,-0.44641 0.32041,-0.64082 0.60823,0.10042 0.22321,-0.66962 -0.0333,-0.0665 0.0526,-0.17059 0,-0.2232 -0.11282,-0.11282 -0.59053,0.2232 -0.89282,0.2232"
     id="path60" />
  <path
     style="fill:#000000"
     d="m 143.07447,198.87574 c 0.29761,-0.0744 0.96722,0.0744 0.89282,-0.2232 -0.0744,-0.29761 -1.19959,0.2232 -0.89282,0.2232 0.59984,0 1.18826,-0.27751 1.78564,-0.2232 0.33137,0.0301 0.59521,0.59521 0.89282,0.44641 0.17348,-0.0867 1.22847,-0.4741 1.33923,-0.44641 0.73005,0.18251 0.10981,0.70741 0.89282,0.44641 0.31556,-0.10519 1.41357,-0.98584 1.78564,-0.89282 0.73006,0.18251 0.10981,0.70741 0.89282,0.44641 0.84591,-0.28197 1.01465,-0.77781 2.00885,-0.44641 0.14117,0.047 0.34119,-0.10522 0.44641,0 0.16631,0.16631 -0.22321,0.21664 -0.22321,0.44641"
     id="path61" />
  <path
     style="fill:#000000"
     d="m 164.05575,199.32215 c 0.29761,-0.0744 0.96722,0.0744 0.89282,-0.2232 -0.0744,-0.29761 -1.13237,0.41484 -0.89282,0.2232 0.59815,-0.47852 1.33637,-0.74921 2.00884,-1.11602 0.14606,-0.0797 0.28005,-0.22321 0.44641,-0.22321 0.26826,0 0.41513,0.36158 0.66962,0.44641 0.093,0.031 1.54648,-0.46237 1.78564,-0.2232 0.0411,0.0411 0.18208,0.62849 0.22321,0.66961 0.2976,0.29761 0.2232,-0.372 0.2232,0.22321"
     id="path62" />
  <path
     style="fill:#000000"
     d="m 164.50216,204.23267 c 0.79944,-0.56894 1.89966,0.13769 2.67846,-0.44641 0.61576,-0.46182 -0.34098,-0.66962 0.89282,-0.66962 0.16637,0 0.28858,0.1706 0.44641,0.22321 0.34484,0.11494 0.84671,-0.16935 1.11603,-0.22321 0.75048,-0.1501 1.30805,0.22321 2.00884,0.22321"
     id="path63" />
  <path
     style="fill:#000000"
     d="m 195.08126,189.72433 c -0.0744,0.37201 -0.59522,1.04163 -0.22321,1.11603 0.37201,0.0744 0.34318,-1.47593 0.22321,-1.11603 -0.22662,0.67985 -0.66962,1.76729 -0.66962,2.45526 0,1.81015 -0.86209,3.35616 -1.11602,5.13372 -0.10727,0.75089 0.18713,1.51396 -0.22321,2.23205 -0.15661,0.27407 -0.55238,0.37653 -0.66961,0.66961 -0.0618,0.15447 0.2232,0.28005 0.2232,0.44641 0,0.68867 -0.90208,1.31144 -0.66961,2.00885 0.0333,0.0998 0.18993,0.12339 0.2232,0.22321 0.12004,0.36012 -0.23286,0.66961 0.22321,0.66961"
     id="path64" />
  <path
     style="fill:#000000"
     d="m 199.99177,190.84036 c -0.0744,0.37201 -0.59521,1.04162 -0.22321,1.11603 0.37201,0.0744 0.34318,-1.47594 0.22321,-1.11603 -0.44096,1.32287 -0.24516,2.52112 -0.66962,3.79449 -0.10522,0.31566 -0.44641,0.56008 -0.44641,0.89282 0,0.33273 0.38116,0.56654 0.44641,0.89282 0.0206,0.10317 -0.18993,0.12338 -0.2232,0.2232 -0.11997,0.35991 -0.09,0.76081 -0.22321,1.11603 -0.0942,0.25118 -0.44641,0.40135 -0.44641,0.66961 0,1.15371 0.92087,0.1531 0.44641,1.33923 -0.13044,0.32613 -1.03129,0.79671 -0.66961,1.33924 0.14646,0.21968 0.66961,0.55483 0.66961,0.2232"
     id="path65" />
  <path
     style="fill:#000000"
     d="m 204.45587,192.84921 c -0.0744,0.2976 -0.52081,0.81842 -0.2232,0.89282 0.2976,0.0744 0.2232,-1.19959 0.2232,-0.89282 0,1.16663 -0.20377,2.29993 -0.66961,3.34807 -0.13514,0.30406 -0.37423,0.56801 -0.44641,0.89282 -0.0807,0.36315 0.0807,0.75288 0,1.11603 -0.0722,0.32481 -0.41331,0.56174 -0.44641,0.89282 -0.21759,2.17587 0.44641,0.53818 0.44641,2.23205 0,0.23528 -0.17707,0.43891 -0.22321,0.66962 -0.14146,0.70732 0.53075,1.61696 0.22321,2.23205 -0.10522,0.21044 -0.45849,0.66961 -0.22321,0.66961 0.0521,0 -0.2232,-0.34969 -0.2232,-0.44641 0,-0.22619 0,-1.89934 0,-1.33923"
     id="path66" />
  <rect
     style="fill:#000000"
     id="rect66"
     width="10.10111"
     height="11.995068"
     x="36.616524"
     y="63.763256" />
  <path
     style="fill:#2e5d8a;fill-opacity:1;stroke-width:0.116376"
     d="m 35.378009,68.747172 c 0,0 -3.515868,-0.419218 0.44641,-5.63593 2.425894,-3.193918 5.524325,0.669615 5.524325,0.669615 l 4.185097,0.223205 -0.223206,5.412725 -0.223205,6.528748 h -3.738686 -5.30112 z"
     id="path67"
     sodipodi:nodetypes="csccccccc" />
</svg>
