<?xml version="1.0" encoding="UTF-8" standalone="no"?>
<svg
   id="Layer_1"
   data-name="Layer 1"
   viewBox="0 0 24 24"
   width="512"
   height="512"
   version="1.1"
   sodipodi:docname="export_excel.svg"
   inkscape:version="1.4.2 (ebf0e940d0, 2025-05-08)"
   xmlns:inkscape="http://www.inkscape.org/namespaces/inkscape"
   xmlns:sodipodi="http://sodipodi.sourceforge.net/DTD/sodipodi-0.dtd"
   xmlns="http://www.w3.org/2000/svg"
   xmlns:svg="http://www.w3.org/2000/svg">
  <defs
     id="defs1" />
  <sodipodi:namedview
     id="namedview1"
     pagecolor="#ffffff"
     bordercolor="#000000"
     borderopacity="0.25"
     inkscape:showpageshadow="2"
     inkscape:pageopacity="0.0"
     inkscape:pagecheckerboard="0"
     inkscape:deskcolor="#d1d1d1"
     inkscape:zoom="1.53125"
     inkscape:cx="256"
     inkscape:cy="256"
     inkscape:window-width="1920"
     inkscape:window-height="1012"
     inkscape:window-x="0"
     inkscape:window-y="0"
     inkscape:window-maximized="1"
     inkscape:current-layer="Layer_1" />
  <path
     d="M14,7V.46c.91,.35,1.75,.88,2.46,1.59l3.48,3.49c.71,.71,1.24,1.55,1.59,2.46h-6.54c-.55,0-1-.45-1-1Zm8,3.49v8.51c0,2.76-2.24,5-5,5H7c-2.76,0-5-2.24-5-5V5C2,2.24,4.24,0,7,0h4.51c.16,0,.32,.01,.49,.02V7c0,1.65,1.35,3,3,3h6.98c.01,.16,.02,.32,.02,.49Zm-8.7,6.51l1.97-2.36c.35-.42,.3-1.05-.13-1.41-.43-.35-1.05-.3-1.41,.13l-1.73,2.08-1.73-2.08c-.35-.42-.98-.48-1.41-.13-.42,.35-.48,.98-.13,1.41l1.97,2.36-1.97,2.36c-.35,.42-.3,1.05,.13,1.41,.19,.16,.41,.23,.64,.23,.29,0,.57-.12,.77-.36l1.73-2.08,1.73,2.08c.2,.24,.48,.36,.77,.36,.23,0,.45-.08,.64-.23,.42-.35,.48-.98,.13-1.41l-1.97-2.36Z"
     id="path1" />
  <path
     style="fill:#d40000;stroke-width:0.0306122"
     d="M 21.453909,1.1353452 C 21.378728,0.92452122 21.199187,0.72162222 20.982,0.60204222 l -0.198979,-0.109555 -3.389422,-0.0083 -3.389423,-0.0083 0.101887,0.237893 c 0.142627,0.33301498 0.265582,0.57097698 0.465868,0.90162198 0.379069,0.625789 0.534642,0.797399 2.626863,2.89764 1.112651,1.116917 2.153869,2.14109 2.313819,2.275939 0.502242,0.423429 1.161337,0.832466 1.737244,1.078143 l 0.252552,0.107736 -0.0024,-3.358533 c -0.002,-2.826262 -0.0093,-3.377938 -0.04608,-3.480981 z"
     id="path2" />
  <path
     style="fill:#00ff00;stroke-width:0.653061"
     d="m 196.50371,446.78671 c -6.21619,-2.037 -11.6428,-7.4478 -13.70926,-13.66933 -1.44653,-4.35511 -0.99614,-11.52005 0.96463,-15.34561 0.78923,-1.5398 10.99047,-14.26769 22.66943,-28.28417 11.67895,-14.01649 21.39614,-25.90585 21.59375,-26.42081 0.22445,-0.58491 -7.74098,-10.6364 -21.2243,-26.78272 -11.87098,-14.21554 -22.25457,-27.22143 -23.07464,-28.90198 -2.19197,-4.49193 -2.39438,-11.04627 -0.4971,-16.09654 4.79271,-12.75747 21.31261,-17.54539 32.04363,-9.28712 1.20975,0.93098 10.72199,11.97633 21.13831,24.54523 10.41633,12.5689 19.23266,22.85137 19.59184,22.84993 0.35918,-0.001 9.51815,-10.6778 20.35327,-23.72525 18.39889,-22.15562 19.95188,-23.84622 23.5102,-25.59345 3.33635,-1.63824 4.54068,-1.87081 9.68755,-1.87081 5.28181,0 6.22861,0.19448 9.34109,1.91875 6.90442,3.82492 10.63325,9.66484 11.07591,17.34656 0.49285,8.55281 0.37147,8.74395 -24.32628,38.30646 -12.03765,14.40872 -21.88664,26.49255 -21.88664,26.85293 0,0.36039 9.83162,12.46382 21.84804,26.89651 23.79482,28.57949 24.51931,29.68067 24.51931,37.26772 0,8.01959 -4.27139,14.79487 -11.5994,18.39896 -3.798,1.86795 -5.03517,2.15235 -9.28905,2.1353 -5.6539,-0.0227 -10.03528,-1.65322 -13.63681,-5.07501 -1.2093,-1.14895 -10.13518,-11.64002 -19.83528,-23.31348 -9.7001,-11.67347 -18.13751,-21.75338 -18.7498,-22.39978 -1.06038,-1.11947 -1.9163,-0.20453 -18.02238,19.2653 -20.66685,24.98314 -23.51322,28.03437 -27.93249,29.9429 -4.12781,1.78266 -10.82576,2.26107 -14.55353,1.03951 z"
     id="path3"
     transform="scale(0.046875)" />
  <path
     style="fill:#d40000;stroke-width:0.653061"
     d="m 194.50496,445.47751 c -4.32709,-2.06623 -8.4002,-6.15508 -10.39129,-10.43145 -1.76764,-3.79643 -2.16578,-10.92983 -0.82977,-14.86698 0.94698,-2.79071 6.54842,-9.97997 27.93414,-35.85255 9.35214,-11.31429 17.00907,-20.90841 17.01538,-21.32027 0.0156,-1.01503 -5.14591,-7.64541 -19.2439,-24.72055 -27.09698,-32.81917 -26.42211,-31.80936 -26.44457,-39.56916 -0.0123,-4.2424 0.2745,-5.53493 1.98948,-8.9669 3.62008,-7.24442 10.27837,-11.22499 18.75537,-11.21266 3.25371,0.005 5.22536,0.40637 7.64898,1.55812 4.54008,2.15754 5.61282,3.32462 32.62753,35.49673 6.40909,7.63265 11.99293,13.87755 12.40853,13.87755 0.86171,0 1.51206,-0.74237 20.88226,-23.83674 17.47214,-20.83138 20.07097,-23.57338 24.20412,-25.53754 4.37501,-2.07909 12.30928,-2.20309 16.33296,-0.25526 4.15329,2.01057 8.03096,5.67308 9.92709,9.37625 2.15483,4.20844 2.84589,12.50277 1.34165,16.10293 -1.37101,3.2813 -7.21647,10.83291 -25.01295,32.31362 -21.81501,26.33116 -20.2324,24.2159 -19.41964,25.95563 0.37847,0.81012 8.5255,10.9805 18.10453,22.60086 27.3662,33.19803 27.13836,32.8568 27.12815,40.62929 -0.011,8.39515 -4.04451,14.54802 -12.00591,18.31442 -4.66674,2.20777 -9.29019,2.47279 -14.76669,0.84643 -4.65982,-1.38381 -7.31608,-4.13103 -28.35536,-29.32622 -12.11806,-14.51176 -17.28576,-20.2449 -18.24823,-20.2449 -0.95033,0 -4.85176,4.19851 -13.35074,14.36735 -29.45205,35.23871 -29.89289,35.64007 -39.62595,36.07736 -4.51064,0.20266 -5.6979,0.0129 -8.60517,-1.37536 z"
     id="path4"
     transform="scale(0.046875)" />
</svg>
