<?xml version="1.0" encoding="UTF-8" standalone="no"?>
<svg
   id="Layer_1"
   data-name="Layer 1"
   viewBox="0 0 24 24"
   width="512"
   height="512"
   version="1.1"
   sodipodi:docname="export_excel.svg"
   inkscape:version="1.4.2 (ebf0e940d0, 2025-05-08)"
   inkscape:export-filename="../../E_Dnevnik_Osnovne_Skole/assets/icons/actions/export.png"
   inkscape:export-xdpi="96"
   inkscape:export-ydpi="96"
   xmlns:inkscape="http://www.inkscape.org/namespaces/inkscape"
   xmlns:sodipodi="http://sodipodi.sourceforge.net/DTD/sodipodi-0.dtd"
   xmlns="http://www.w3.org/2000/svg"
   xmlns:svg="http://www.w3.org/2000/svg">
  <defs
     id="defs1" />
  <sodipodi:namedview
     id="namedview1"
     pagecolor="#ffffff"
     bordercolor="#000000"
     borderopacity="0.25"
     inkscape:showpageshadow="2"
     inkscape:pageopacity="0.0"
     inkscape:pagecheckerboard="0"
     inkscape:deskcolor="#d1d1d1"
     inkscape:zoom="1.53125"
     inkscape:cx="256"
     inkscape:cy="256"
     inkscape:window-width="1920"
     inkscape:window-height="1008"
     inkscape:window-x="0"
     inkscape:window-y="0"
     inkscape:window-maximized="1"
     inkscape:current-layer="Layer_1" />
  <path
     style="fill:#d40000;stroke-width:0.0306122"
     d="M 21.453909,1.1353452 C 21.378728,0.92452122 21.199187,0.72162222 20.982,0.60204222 l -0.198979,-0.109555 -3.389422,-0.0083 -3.389423,-0.0083 0.101887,0.237893 c 0.142627,0.33301498 0.265582,0.57097698 0.465868,0.90162198 0.379069,0.625789 0.534642,0.797399 2.626863,2.89764 1.112651,1.116917 2.153869,2.14109 2.313819,2.275939 0.502242,0.423429 1.161337,0.832466 1.737244,1.078143 l 0.252552,0.107736 -0.0024,-3.358533 c -0.002,-2.826262 -0.0093,-3.377938 -0.04608,-3.480981 z"
     id="path2" />
  <path
     style="fill:#008080;stroke:#d38d5f;stroke-width:3.26531"
     d="M 141.71429,511.30997 C 119.9144,509.7989 98.241831,501.01398 81.306122,486.82369 59.461874,468.52057 46.181153,443.0862 43.454536,414.3328 42.516644,404.4423 42.519411,107.52982 43.457487,97.632653 45.560966,75.439922 53.917741,55.275249 67.950943,38.530612 86.872571,15.953028 113.12927,2.6959695 143.01042,0.6329329 c 9.772,-0.67467324 94.30485,-0.83813632 105.31611,-0.20365212 l 7.34694,0.423341 V 77.728522 c 0,84.980128 -0.0994,82.736728 4.16943,94.101638 3.18651,8.48342 7.73586,15.61023 14.11628,22.11392 9.12042,9.2966 16.65838,13.72883 30.36735,17.8556 4.52394,1.36183 5.39982,1.37825 84.31535,1.58109 l 79.74392,0.20497 0.4147,4.39081 c 0.69988,7.41012 0.47782,187.81968 -0.24117,195.94244 -3.30793,37.37134 -25.26686,69.80625 -58.43688,86.3155 -13.52909,6.73364 -25.89534,10.08056 -41.13287,11.13258 -10.21466,0.70523 -217.02684,0.65327 -227.27529,-0.0571 z m 68.81386,-64.52406 c 1.75737,-0.66775 4.18502,-1.97378 5.39476,-2.9023 1.20975,-0.92852 10.57505,-11.82218 20.81178,-24.20815 C 246.97143,407.2895 255.64082,397.15114 256,397.1458 c 0.35918,-0.005 9.02857,10.13513 19.26531,22.53439 10.23673,12.39926 19.7613,23.39483 21.16569,24.43459 4.04241,2.99283 8.20485,4.08419 14.34743,3.76178 4.30491,-0.22594 5.98484,-0.64137 8.8087,-2.17831 4.46793,-2.43176 8.16069,-6.64275 9.92379,-11.31648 1.93645,-5.13325 1.56152,-12.73451 -0.85835,-17.40218 -0.93106,-1.79592 -11.09981,-14.50151 -22.59722,-28.23465 -11.49741,-13.73314 -21.07567,-25.2465 -21.28503,-25.58525 -0.20936,-0.33875 9.45009,-12.39983 21.46545,-26.80239 24.84727,-29.78393 24.87103,-29.82182 24.388,-38.88791 -0.33952,-6.37235 -2.22996,-10.49884 -6.6955,-14.61503 -4.6294,-4.26724 -8.08751,-5.58194 -14.70378,-5.59006 -4.79989,-0.006 -6.03705,0.24095 -9.14286,1.82419 -1.97551,1.00705 -4.14797,2.32207 -4.82771,2.92227 -0.67972,0.6002 -9.73566,11.30353 -20.12429,23.78516 -10.38863,12.48163 -18.99791,22.69388 -19.13171,22.69388 -0.13381,0 -8.09009,-9.47756 -17.68063,-21.06123 -21.31224,-25.74141 -21.25946,-25.6846 -25.96004,-27.94156 -4.84163,-2.32468 -9.1167,-2.91223 -13.94649,-1.91677 -4.79164,0.9876 -6.80444,2.02605 -10.46225,5.39771 -4.3444,4.00452 -6.2353,8.17672 -6.57228,14.50144 -0.48419,9.08782 -0.45938,9.12734 24.40721,38.88173 12.01953,14.3821 21.67827,26.43313 21.46385,26.78006 -0.21441,0.34693 -9.79678,11.87005 -21.29415,25.60694 -11.49737,13.73689 -21.66801,26.44555 -22.60143,28.24147 -2.42447,4.66474 -2.80113,12.26347 -0.86263,17.40218 1.87189,4.96211 5.71656,9.17038 10.6138,11.61756 3.44388,1.72093 4.71864,2.00067 9.11688,2.00067 3.40278,0 6.18199,-0.40612 8.30839,-1.21409 z"
     id="path3"
     transform="scale(0.046875)" />
  <path
     style="fill:#008080;stroke:#d38d5f;stroke-width:3.26531"
     d="m 314.41669,169.55952 c -5.83376,-1.57337 -11.21813,-6.25098 -13.91884,-12.09183 l -1.39581,-3.01871 -0.11653,-71.510204 -0.11652,-71.510205 1.37692,3.265307 c 4.88789,11.591351 13.22191,25.453041 20.80982,34.612244 5.93515,7.164196 79.17079,81.109648 91.59136,92.479088 11.18442,10.2379 25.03776,19.29347 39.47716,25.80519 l 6.32473,2.85226 -70.53061,-0.0409 c -53.56021,-0.0311 -71.24548,-0.23371 -73.50168,-0.84222 z"
     id="path5"
     transform="scale(0.046875)" />
  <rect
     style="fill:none;stroke:#d38d5f;stroke-width:0.234375"
     id="rect5"
     width="3.0918367"
     height="2.6632652"
     x="2.8469388"
     y="4.7755103" />
  <rect
     style="fill:none;stroke:#d38d5f;stroke-width:0.234375"
     id="rect6"
     width="3.0918367"
     height="2.6632652"
     x="2.8469388"
     y="7.4387755" />
  <rect
     style="fill:none;stroke:#d38d5f;stroke-width:0.234375"
     id="rect7"
     width="3.0918367"
     height="2.6632652"
     x="5.9693875"
     y="4.8061228" />
  <rect
     style="fill:none;stroke:#d38d5f;stroke-width:0.234375"
     id="rect8"
     width="3.0918367"
     height="2.6632652"
     x="5.9693875"
     y="7.469388" />
  <rect
     style="fill:none;stroke:#d38d5f;stroke-width:0.234375"
     id="rect12"
     width="3.0918367"
     height="2.6632652"
     x="2.8163266"
     y="10.132652" />
  <rect
     style="fill:none;stroke:#d38d5f;stroke-width:0.234375"
     id="rect13"
     width="3.0918367"
     height="2.6632652"
     x="2.8163266"
     y="12.795918" />
  <rect
     style="fill:none;stroke:#d38d5f;stroke-width:0.234375"
     id="rect14"
     width="3.0918367"
     height="2.6632652"
     x="5.9387751"
     y="10.163265" />
  <rect
     style="fill:none;stroke:#d38d5f;stroke-width:0.234375"
     id="rect15"
     width="3.0918367"
     height="2.6632652"
     x="5.9387751"
     y="12.82653" />
  <rect
     style="fill:none;stroke:#d38d5f;stroke-width:0.234375"
     id="rect16"
     width="3.0918367"
     height="2.6632652"
     x="2.7857144"
     y="15.489795" />
  <rect
     style="fill:none;stroke:#d38d5f;stroke-width:0.234375"
     id="rect17"
     width="3.0918367"
     height="2.6632652"
     x="2.7857144"
     y="18.153063" />
  <rect
     style="fill:none;stroke:#d38d5f;stroke-width:0.234375"
     id="rect18"
     width="3.0918367"
     height="2.6632652"
     x="5.9081626"
     y="15.520408" />
  <rect
     style="fill:none;stroke:#d38d5f;stroke-width:0.234375"
     id="rect19"
     width="3.0918367"
     height="2.6632652"
     x="5.9081626"
     y="18.183674" />
  <rect
     style="fill:none;stroke:#d38d5f;stroke-width:0.234375"
     id="rect20"
     width="3.0918367"
     height="2.6632652"
     x="9.0612249"
     y="12.887755" />
  <rect
     style="fill:none;stroke:#d38d5f;stroke-width:0.234375"
     id="rect21"
     width="3.0918367"
     height="2.6632652"
     x="12.183674"
     y="12.918367" />
  <rect
     style="fill:none;stroke:#d38d5f;stroke-width:0.234375"
     id="rect22"
     width="3.0918367"
     height="2.6632652"
     x="9.0306129"
     y="15.581632" />
  <rect
     style="fill:none;stroke:#d38d5f;stroke-width:0.234375"
     id="rect23"
     width="3.0918367"
     height="2.6632652"
     x="9.0306129"
     y="18.2449" />
  <rect
     style="fill:none;stroke:#d38d5f;stroke-width:0.234375"
     id="rect24"
     width="3.0918367"
     height="2.6632652"
     x="12.153061"
     y="15.612245" />
  <rect
     style="fill:none;stroke:#d38d5f;stroke-width:0.234375"
     id="rect25"
     width="3.0918367"
     height="2.6632652"
     x="12.153061"
     y="18.275511" />
  <rect
     style="fill:none;stroke:#d38d5f;stroke-width:0.234375"
     id="rect26"
     width="3.0918367"
     height="2.6632652"
     x="15.306124"
     y="12.94898" />
  <rect
     style="fill:none;stroke:#d38d5f;stroke-width:0.234375"
     id="rect27"
     width="3.0918367"
     height="2.6632652"
     x="18.428572"
     y="12.979592" />
  <rect
     style="fill:none;stroke:#d38d5f;stroke-width:0.234375"
     id="rect28"
     width="3.0918367"
     height="2.6632652"
     x="15.275511"
     y="15.642857" />
  <rect
     style="fill:none;stroke:#d38d5f;stroke-width:0.234375"
     id="rect29"
     width="3.0918367"
     height="2.6632652"
     x="15.275511"
     y="18.306124" />
  <rect
     style="fill:none;stroke:#d38d5f;stroke-width:0.234375"
     id="rect30"
     width="3.0918367"
     height="2.6632652"
     x="18.397959"
     y="15.67347" />
  <rect
     style="fill:none;stroke:#d38d5f;stroke-width:0.234375"
     id="rect31"
     width="3.0918367"
     height="2.6632652"
     x="18.397959"
     y="18.336735" />
  <path
     style="fill:#d40000;stroke-width:0.653061"
     d="m 194.50496,445.47751 c -4.32709,-2.06623 -8.4002,-6.15508 -10.39129,-10.43145 -1.76764,-3.79643 -2.16578,-10.92983 -0.82977,-14.86698 0.94698,-2.79071 6.54842,-9.97997 27.93414,-35.85255 9.35214,-11.31429 17.00907,-20.90841 17.01538,-21.32027 0.0156,-1.01503 -5.14591,-7.64541 -19.2439,-24.72055 -27.09698,-32.81917 -26.42211,-31.80936 -26.44457,-39.56916 -0.0123,-4.2424 0.2745,-5.53493 1.98948,-8.9669 3.62008,-7.24442 10.27837,-11.22499 18.75537,-11.21266 3.25371,0.005 5.22536,0.40637 7.64898,1.55812 4.54008,2.15754 5.61282,3.32462 32.62753,35.49673 6.40909,7.63265 11.99293,13.87755 12.40853,13.87755 0.86171,0 1.51206,-0.74237 20.88226,-23.83674 17.47214,-20.83138 20.07097,-23.57338 24.20412,-25.53754 4.37501,-2.07909 12.30928,-2.20309 16.33296,-0.25526 4.15329,2.01057 8.03096,5.67308 9.92709,9.37625 2.15483,4.20844 2.84589,12.50277 1.34165,16.10293 -1.37101,3.2813 -7.21647,10.83291 -25.01295,32.31362 -21.81501,26.33116 -20.2324,24.2159 -19.41964,25.95563 0.37847,0.81012 8.5255,10.9805 18.10453,22.60086 27.3662,33.19803 27.13836,32.8568 27.12815,40.62929 -0.011,8.39515 -4.04451,14.54802 -12.00591,18.31442 -4.66674,2.20777 -9.29019,2.47279 -14.76669,0.84643 -4.65982,-1.38381 -7.31608,-4.13103 -28.35536,-29.32622 -12.11806,-14.51176 -17.28576,-20.2449 -18.24823,-20.2449 -0.95033,0 -4.85176,4.19851 -13.35074,14.36735 -29.45205,35.23871 -29.89289,35.64007 -39.62595,36.07736 -4.51064,0.20266 -5.6979,0.0129 -8.60517,-1.37536 z"
     id="path4"
     transform="scale(0.046875)" />
</svg>
