<?xml version="1.0" encoding="UTF-8" standalone="no"?>
<svg xmlns="http://www.w3.org/2000/svg" width="64" height="64" viewBox="0 0 64 64">
  <!-- Library icon with books and scholar silhouette -->
  <rect x="8" y="12" width="48" height="40" rx="2" fill="#8B4513" stroke="#000" stroke-width="1" />
  <!-- Bookshelf -->
  <rect x="10" y="15" width="44" height="34" rx="1" fill="#A0522D" />
  <!-- Books on shelf -->
  <rect x="12" y="18" width="6" height="28" rx="1" fill="#8B0000" />
  <rect x="19" y="18" width="5" height="28" rx="1" fill="#006400" />
  <rect x="25" y="18" width="7" height="28" rx="1" fill="#00008B" />
  <rect x="33" y="18" width="4" height="28" rx="1" fill="#4B0082" />
  <rect x="38" y="18" width="6" height="28" rx="1" fill="#800080" />
  <rect x="45" y="18" width="8" height="28" rx="1" fill="#A0522D" />
  <!-- Scholar silhouette -->
  <path d="M32,5 C28,5 25,8 25,12 C25,16 28,19 32,19 C36,19 39,16 39,12 C39,8 36,5 32,5 Z" fill="#333" />
  <path d="M24,20 C22,25 22,30 24,35 L32,50 L40,35 C42,30 42,25 40,20 C38,22 35,23 32,23 C29,23 26,22 24,20 Z" fill="#333" />
  <!-- Book in hand -->
  <rect x="28" y="30" width="8" height="6" rx="1" fill="#8B0000" />
</svg>
