<?xml version="1.0" encoding="UTF-8" standalone="no"?>
<svg
   id="Layer_1"
   data-name="Layer 1"
   viewBox="0 0 24 24"
   width="512"
   height="512"
   version="1.1"
   sodipodi:docname="import_json.svg"
   inkscape:version="1.4.2 (ebf0e940d0, 2025-05-08)"
   xmlns:inkscape="http://www.inkscape.org/namespaces/inkscape"
   xmlns:sodipodi="http://sodipodi.sourceforge.net/DTD/sodipodi-0.dtd"
   xmlns="http://www.w3.org/2000/svg"
   xmlns:svg="http://www.w3.org/2000/svg">
  <defs
     id="defs1" />
  <sodipodi:namedview
     id="namedview1"
     pagecolor="#ffffff"
     bordercolor="#000000"
     borderopacity="0.25"
     inkscape:showpageshadow="2"
     inkscape:pageopacity="0.0"
     inkscape:pagecheckerboard="0"
     inkscape:deskcolor="#d1d1d1"
     inkscape:zoom="1.53125"
     inkscape:cx="256"
     inkscape:cy="256"
     inkscape:window-width="1920"
     inkscape:window-height="1012"
     inkscape:window-x="0"
     inkscape:window-y="0"
     inkscape:window-maximized="1"
     inkscape:current-layer="Layer_1" />
  <path
     d="m12,0C5.383,0,0,5.383,0,12s5.383,12,12,12,12-5.383,12-12S18.617,0,12,0Zm4.75,15c0,1.654-1.346,3-3,3h-4c-1.654,0-3-1.346-3-3,0-.553.447-1,1-1s1,.447,1,1,.448,1,1,1h4c.552,0,1-.448,1-1V7c0-.552.447-1,1-1s1,.448,1,1v8Z"
     id="path1" />
  <path
     style="fill:#338000;stroke-width:0.653061"
     d="M 239.34694,511.25183 C 139.7204,503.78116 54.782991,441.6214 18.061648,349.3086 -1.0396761,301.29029 -4.7765735,246.30952 7.6139265,195.59184 21.172963,140.09101 53.639813,89.927896 98.803918,54.698152 137.09663,24.828357 181.38702,6.9478988 230.53061,1.5188157 242.27327,0.22155835 272.55288,0.41502067 284.40816,1.86305 c 34.52608,4.2170858 66.12846,14.330457 95.02041,30.40836 68.23575,37.97209 115.64248,104.70522 128.56459,180.97677 2.6252,15.49502 3.34658,24.71057 3.34658,42.75182 0,18.04125 -0.72138,27.2568 -3.34658,42.75182 -11.71208,69.12946 -52.09728,131.14046 -110.74947,170.05449 -34.25452,22.72689 -71.0451,36.22077 -112.509,41.26553 -8.19458,0.99701 -37.62454,1.76213 -45.38775,1.17999 z m 64.73078,-127.88384 c 13.72221,-2.4032 24.80035,-8.1468 34.58416,-17.9306 8.09691,-8.09691 13.78114,-17.81978 17.01894,-29.11086 l 1.49816,-5.22449 0.20111,-92.83313 0.20111,-92.83313 -1.42305,-3.80343 c -1.81179,-4.84247 -6.61985,-10.02489 -11.21004,-12.0829 -4.71493,-2.11394 -13.11941,-2.17124 -17.57977,-0.11987 -4.3212,1.98737 -9.22519,6.79631 -11.0532,10.83898 l -1.53963,3.40491 -0.32653,90.46308 -0.32653,90.46308 -2.13586,4.33819 c -2.44667,4.96945 -5.40028,7.83711 -10.56904,10.26146 l -3.62163,1.69868 h -46.69388 c -53.33305,0 -50.65795,0.26218 -57.06432,-5.59288 -4.39294,-4.01489 -6.28138,-8.21457 -7.02898,-15.63161 -1.30274,-12.9249 -9.45021,-21.0722 -21.13119,-21.13076 -6.96057,-0.0349 -10.95203,1.58895 -15.67966,6.37893 -5.59647,5.67028 -6.47326,8.47209 -6.01253,19.2133 0.24476,5.70627 0.79955,9.79292 1.7881,13.17118 6.99506,23.90499 26.53305,41.60765 50.75466,45.98694 7.64461,1.38215 99.51918,1.44628 107.3496,0.0749 z"
     id="path2"
     transform="scale(0.046875)" />
</svg>
