<?xml version="1.0" encoding="UTF-8" standalone="no"?>
<svg xmlns="http://www.w3.org/2000/svg" width="24" height="24" viewBox="0 0 24 24">
  <!-- Gear with book theme -->
  <circle cx="12" cy="12" r="2" fill="#D2B48C" stroke="#000" stroke-width="0.8" />
  <path d="M12,4 L13,8 C13.5,8.1 14,8.3 14.5,8.6 L18,7 L20,11 L16.5,13 C16.5,13.3 16.5,13.7 16.5,14 L20,16 L18,20 L14.5,18.4 C14,18.7 13.5,18.9 13,19 L12,23 L8,23 L7,19 C6.5,18.9 6,18.7 5.5,18.4 L2,20 L0,16 L3.5,14 C3.5,13.7 3.5,13.3 3.5,13 L0,11 L2,7 L5.5,8.6 C6,8.3 6.5,8.1 7,8 L8,4 Z" fill="#8B4513" stroke="#000" stroke-width="0.8" />
  <!-- Book pages in the center -->
  <path d="M10,12 C10,11 11,10 12,10 C13,10 14,11 14,12" fill="none" stroke="#000" stroke-width="0.5" />
</svg>
